# xmcd
#
# Track frame offsets:
#	150
#	25810
#	45483
#	69990
#	88971
#	111479
#	134337
#	153391
#	173395
#	192063
#	205078
#	223668
#	242421
#	258407
#
# Disc length: 3706 seconds
#
# Revision: 5
# Processed by: cddbd v1.5.2PL0 Copyright (c) Steve Scherf et al.
# Submitted via: EasyCDDAExtractor 10.0.2.1
#
DISCID=bb0e780e
DTITLE=Various Artist - Good Times
DYEAR=2003
DGENRE=Love Song
TTITLE0=Intern.Diversas, Air Supply - Making Love Out of Nothing at All
TTITLE1=Intern.Diversas, Manhattans - Forever By Your Side
TTITLE2=Intern.Diversas, The Stylistics - You Make Me Feel Brand New
TTITLE3=Michael Jackson - One Day in Your Life
TTITLE4=Alan Parsons - Time
TTITLE5=Intern.Diversas, Rockwell - Knife
TTITLE6=Nacion.Diversas, Sérgio Mendes - Never Gonna Let You Go
TTITLE7=Intern.Diversas, Menudos - If You're Not Here
TTITLE8=Intern.Diversas, Captain and Tennille - Do That to Me One More Time
TTITLE9=Intern.Diversas, Dr.Hook - Sharing the Night Together
TTITLE10=Intern.Diversas, Will to Power - Baby I Love Your Way/ Free Bird
TTITLE11=Christopher Cross - Never Be the Same
TTITLE12=Intern.Diversas, Giselle Hailer - Still Hurts
TTITLE13=Intern.Diversas, Craig McClean - Alone Again
EXTD=
EXTT0=
EXTT1=
EXTT2=
EXTT3=
EXTT4=
EXTT5=
EXTT6=
EXTT7=
EXTT8=
EXTT9=
EXTT10=
EXTT11=
EXTT12=
EXTT13=
PLAYORDER=
